Coordinates
version=1
nRows=18
nColumns=22
inDegrees=yes

Units are S.I. units (second, meters, Newtons, ...)
If the header above contains a line with 'inDegrees', this indicates whether rotational values are in degrees (yes) or radians (no).

endheader
time	pelvis_tilt	pelvis_list	pelvis_rotation	pelvis_tx	pelvis_ty	pelvis_tz	hip_flexion_r	hip_adduction_r	hip_rotation_r	knee_angle_r	ankle_angle_r	subtalar_angle_r	hip_flexion_l	hip_adduction_l	hip_rotation_l	knee_angle_l	ankle_angle_l	subtalar_angle_l	lumbar_extension	lumbar_bending	lumbar_rotation
      3.65000000	      2.55901706	      5.56330162	    145.79673241	      0.47200899	      0.93806797	     -0.58658770	     15.47021935	      4.96408750	      4.68197981	    -24.29252870	     10.42844749	      8.41305983	     22.98169276	     -4.90897128	     -7.89852447	    -75.69634562	      0.08993995	      0.74694200	     -6.88224909	     11.08717634	     -6.68800788
      3.66000000	      2.30888475	      5.57314711	    146.16416850	      0.46478330	      0.93962245	     -0.59054370	     14.34131674	      4.69246643	      4.34523958	    -23.71769422	     10.83527526	      8.37047059	     24.37204763	     -5.39252371	     -8.61841205	    -76.12237932	      0.56572399	     -0.23651490	     -7.18015957	     10.97155328	     -6.02656830
      3.67000000	      2.04501360	      5.58129562	    146.58172459	      0.45736055	      0.94111929	     -0.59429675	     13.17150813	      4.39535378	      3.96536368	    -23.10232233	     11.21999147	      8.34698409	     25.66134412	     -5.77776428	     -9.20965494	    -76.24090357	      0.97226727	     -1.02617770	     -7.46444961	     10.86321588	     -5.42833896
      3.68000000	      1.77534032	      5.57726739	    147.05077428	      0.44976735	      0.94251260	     -0.59788446	     11.98821186	      4.07432984	      3.52095440	    -22.47380167	     11.61635730	      8.33273566	     26.85901166	     -6.07760365	     -9.69815687	    -76.06201019	      1.30501231	     -1.65461897	     -7.72136706	     10.74739858	     -4.88568675
      3.69000000	      1.51346417	      5.56832057	    147.55088918	      0.44205278	      0.94377790	     -0.60132756	     10.80161084	      3.75362768	      3.03694698	    -21.83016675	     12.00901570	      8.32314108	     27.96934591	     -6.32469086	    -10.11151916	    -75.60125729	      1.57747456	     -2.16867194	     -7.95331394	     10.63954683	     -4.37428766
      3.70000000	      1.25452774	      5.56481839	    148.08356260	      0.43421906	      0.94491781	     -0.60463599	      9.59792646	      3.44512953	      2.52176538	    -21.16805992	     12.39182325	      8.31063166	     28.97624218	     -6.53349163	    -10.46244606	    -74.86872643	      1.82249465	     -2.63082716	     -8.17274330	     10.54616418	     -3.89471377
      3.71000000	      1.00882418	      5.56658328	    148.64885038	      0.42630472	      0.94591397	     -0.60785418	      8.39015376	      3.16216140	      1.97390062	    -20.49230992	     12.75964209	      8.28499132	     29.88610486	     -6.71901635	    -10.75607554	    -73.87168512	      2.07253360	     -3.04210291	     -8.36983042	     10.45956045	     -3.44909158
      3.72000000	      0.77486476	      5.58158986	    149.23850456	      0.41831092	      0.94676023	     -0.61098152	      7.17673058	      2.91407449	      1.40652054	    -19.81067961	     13.11530726	      8.23978878	     30.69171683	     -6.89764557	    -11.01322816	    -72.62489955	      2.33608454	     -3.42737593	     -8.55217096	     10.39015844	     -3.03754762
      3.73000000	      0.55599309	      5.61046411	    149.85290354	      0.41024519	      0.94743636	     -0.61401868	      5.96466087	      2.70566599	      0.82071789	    -19.12921342	     13.45801220	      8.17290366	     31.39825825	     -7.07350546	    -11.24059615	    -71.14397337	      2.62501797	     -3.78330221	     -8.71865851	     10.33975226	     -2.66135258
      3.74000000	      0.35456285	      5.65420205	    150.48935919	      0.40210390	      0.94792694	     -0.61696419	      4.76230268	      2.53916806	      0.20498977	    -18.45827561	     13.79277144	      8.08646050	     32.00646579	     -7.24654035	    -11.44698252	    -69.43753361	      2.93536335	     -4.10589194	     -8.86488647	     10.30993243	     -2.33010874
      3.75000000	      0.17012111	      5.71115437	    151.14160216	      0.39390160	      0.94822175	     -0.61981902	      3.57623163	      2.41476518	     -0.42419481	    -17.80502648	     14.12617198	      7.98189065	     32.51608394	     -7.41378336	    -11.63999429	    -67.51410346	      3.24607175	     -4.41388582	     -8.99510188	     10.29684051	     -2.03343711
      3.76000000	      0.00715083	      5.77872972	    151.80794020	      0.38564600	      0.94830009	     -0.62256627	      2.42446892	      2.33035605	     -1.07533786	    -17.18830089	     14.46353605	      7.86317522	     32.93538644	     -7.56629428	    -11.81900821	    -65.38374072	      3.54450514	     -4.70642873	     -9.10414380	     10.30107247	     -1.77676952
      3.77000000	     -0.13263310	      5.85699002	    152.48646852	      0.37733645	      0.94815617	     -0.62519648	      1.31644552	      2.28537445	     -1.73918013	    -16.62188446	     14.80603497	      7.73319391	     33.26789540	     -7.69699159	    -11.98059841	    -63.05477095	      3.82467283	     -4.98403261	     -9.19041273	     10.32381187	     -1.55361944
      3.78000000	     -0.25048624	      5.94746595	    153.18348488	      0.36896643	      0.94778846	     -0.62769262	      0.26048171	      2.27881895	     -2.41681787	    -16.12613185	     15.15554563	      7.59603173	     33.51612875	     -7.79479894	    -12.11380912	    -60.53721934	      4.09113634	     -5.23560037	     -9.25223199	     10.36582973	     -1.37191149
      3.79000000	     -0.34638794	      6.04763195	    153.88985464	      0.36056258	      0.94720166	     -0.63005709	     -0.74001375	      2.30766556	     -3.09171819	    -15.69971366	     15.51560398	      7.45317514	     33.68423918	     -7.85399475	    -12.21202443	    -57.84088627	      4.35237255	     -5.46268926	     -9.29570720	     10.42204763	     -1.21653464
      3.80000000	     -0.42248551	      6.15517092	    154.59449961	      0.35213937	      0.94639734	     -0.63229561	     -1.67893797	      2.36690014	     -3.74601794	    -15.35298615	     15.89075054	      7.30631833	     33.77829148	     -7.88012666	    -12.28747138	    -54.99055518	      4.61188461	     -5.66830789	     -9.32145581	     10.48873367	     -1.07967973
      3.81000000	     -0.47941770	      6.26443103	    155.28880984	      0.34372980	      0.94537600	     -0.63444105	     -2.54801322	      2.44871852	     -4.37859068	    -15.09383418	     16.29204635	      7.15742967	     33.81026447	     -7.87518661	    -12.33306284	    -52.01710110	      4.88421593	     -5.86186367	     -9.33048962	     10.55023575	     -0.95713833
      3.82000000	     -0.54049835	      6.38386105	    155.96152966	      0.33533668	      0.94421309	     -0.63649374	     -3.39667425	      2.55536019	     -4.90793318	    -14.87781493	     16.68003497	      7.00369853	     33.75285852	     -7.83853906	    -12.34003871	    -48.94003123	      5.17203833	     -6.10055152	     -9.35584242	     10.60581709	     -0.82797228
